<?xml version="1.0" encoding="UTF-8" standalone="no"?>
<svg width="1085px" height="429px" viewBox="0 0 1085 429" version="1.1" xmlns="http://www.w3.org/2000/svg" xmlns:xlink="http://www.w3.org/1999/xlink" xmlns:sketch="http://www.bohemiancoding.com/sketch/ns">
    <!-- Generator: Sketch 3.3.3 (12081) - http://www.bohemiancoding.com/sketch -->
    <title>Slice 1</title>
    <desc>Created with Sketch.</desc>
    <defs></defs>
    <g id="Page-1" stroke="none" stroke-width="1" fill="none" fill-rule="evenodd" sketch:type="MSPage">
        <path d="M157.528888,232.867903 C157.528888,225.442139 131.064664,209.546105 118.762246,197.318031 C66.8878898,145.757154 23.8126185,86.9062105 23.8126185,86.9062105 L64.6729715,54.927365 L118.762249,47.7976552 L150.492936,76.1869755 L159,232.867899 L157.528895,360 C157.528895,360 157.528888,240.293667 157.528888,232.867903 Z" id="Path-3" stroke="#979797" sketch:type="MSShapeGroup" transform="translate(91.406309, 203.898828) scale(-1, 1) translate(-91.406309, -203.898828) "></path>
        <path d="M136.606152,132.289096 C136.606152,214.256137 79.2866968,359.999997 146.365423,360 C213.444149,360.000003 229.476453,347.817172 237.788106,341.256778 C246.099759,334.696384 253.158958,136.875953 253.158958,136.875953" id="Path-4" stroke="#979797" sketch:type="MSShapeGroup"></path>
        <path id="Path-5" stroke="#979797" sketch:type="MSShapeGroup" d=""></path>
        <path d="M349.067437,98.0069452 C299.886133,197.220782 232.075464,190.042293 298.438508,221.266539 C364.801551,252.490786 383.062232,293.23032 383.062232,293.23032 L256.679671,360" id="Path-6" stroke="#979797" sketch:type="MSShapeGroup"></path>
        <path d="M397.440891,102.074667 C401.046727,102.074667 405.022652,102.051478 409.205052,102.011306 C436.277756,101.751272 447.527641,102.011306 447.527641,102.011306 L447.527641,122.894501 C447.527641,122.894501 438.794721,216.053978 439.68227,219.967466 C447.236491,253.276466 534.629127,231.537619 534.629127,231.537619 C534.629127,231.537619 530.531256,91.0161598 550.043358,96.4150907 C567.318286,101.195003 550.043357,237.437414 550.043357,237.437414 C550.043357,237.437414 566.559406,377.722298 550.043358,380.962902 C539.997989,382.933898 547.763317,312.203855 534.629128,274.944683 C532.578299,269.126874 538.326543,262.796002 534.629127,259.091299 C514.222192,238.644142 439.68227,259.091299 439.68227,259.091299 C439.68227,259.091299 439.787005,391.21682 428.942272,372.228354 C409.205051,337.669684 421.855335,132.289095 421.855335,132.289095 L421.855335,122.894501 C421.855335,122.894501 370.494457,102.074667 397.440891,102.074667 Z" id="Path-7" stroke="#979797" sketch:type="MSShapeGroup"></path>
        <path d="M602.629566,102.85621 L602.629566,359.88288 L630.362162,361.325083 L623.308377,239.675769 L706.121214,342.316192 L727.878967,314.719142 L652.412692,224.668179 L627.819329,220.450005 L628.361511,191.443282 L729.017549,112.235954 L699.181288,87.7076522 L631.37062,161.655818 L626.973526,89.9251755 L600.688556,87.5775286 C600.688556,87.5775286 602.629566,33.8310556 602.629566,102.85621 Z" id="Path-8" stroke="#979797" sketch:type="MSShapeGroup"></path>
        <path d="M755.557344,78.3441738 C790.815424,78.3441738 858.273673,76.8369086 858.273673,76.8369086 L859.179116,106.689435 L823.487293,106.689435 L821.616766,334.579259 L862.963545,334.579259 L861.57556,361.346771 L766.823881,362.485352 L763.92863,333.733455 L797.495101,333.554535 L800.271072,101.386897 L757.471246,102.888741 C757.471246,102.888741 720.299265,78.3441738 755.557344,78.3441738 Z" id="Path-9" stroke="#979797" sketch:type="MSShapeGroup"></path>
        <path d="M889.877446,85.696158 C889.877446,176.283881 892.290155,347.157875 892.290155,347.157875 L927.542811,347.044017 L921.27519,125.29169 L1009.89479,330.881579 L1059.07068,332.638248 L1054.9772,82.0852277 L1015.67445,82.4484894 L1022.42461,278.517668 L931.89653,80.0954207 C931.89653,80.0954207 889.877446,-4.89156478 889.877446,85.696158 Z" id="Path-10" stroke="#979797" sketch:type="MSShapeGroup"></path>
    </g>
</svg>