<?xml version="1.0" encoding="UTF-8" standalone="no"?>
<svg width="595px" height="429px" viewBox="0 0 595 429" version="1.1" xmlns="http://www.w3.org/2000/svg" xmlns:xlink="http://www.w3.org/1999/xlink" xmlns:sketch="http://www.bohemiancoding.com/sketch/ns">
    <!-- Generator: Sketch 3.3.3 (12081) - http://www.bohemiancoding.com/sketch -->
    <title>Slice 1</title>
    <desc>Created with Sketch.</desc>
    <defs></defs>
    <g id="Page-1" stroke="none" stroke-width="1" fill="none" fill-rule="evenodd" sketch:type="MSPage">
        <path d="M0.6953125,238.21875 C0.6953125,238.21875 21.1207775,-25.6445313 17.779477,148.195312 C14.4381765,322.035156 21.24186,345.843747 26.4628222,263.0625 C31.6837844,180.281253 51.7863627,45.2991837 48.1567706,122.128906 C44.5271784,198.958629 34.364897,346.187497 48.8861485,252.90625 C63.4074001,159.625003 73.6388715,-40.0429641 73.6388715,138.511719 C73.6388715,317.066402 63.8917301,510.519298 81.7427505,349.203125 C99.5937708,187.886952 109.91173,70.5820346 109.91173,136.457031 C109.91173,202.332028 101.675237,484.027343 117.57164,249.804688 C133.468042,15.5820317 126.318409,318.304691 133.816875,290.683594 C141.315342,263.062497 145.22746,251.84766 154.132789,194.152344 C163.038119,136.457028 175.025287,20.4570346 175.025287,107.304687 C175.025287,194.15234 167.743039,328.515628 182.327715,266.890625 C196.912391,205.265622 213.030778,48.4609408 213.030778,130.621094 C213.030778,212.781247 210.563002,330.113285 223.031616,255.078125 C235.500231,180.042965 245.181066,110.988285 245.181066,160.980469 C245.181066,210.972653 237.255927,336.449222 248.79336,269.425781 C260.330793,202.40234 271.804802,49.0625033 271.804802,145.644531 C271.804802,242.226559 265.231751,449.527347 277.538923,370.105469 C289.846094,290.68359 295.874273,130.683597 300.806944,200.054687 C305.739614,269.425778 297.474292,584.835938 315.420449,330.105469 C333.366605,75.3749995 354.383068,-72.6093717 354.383068,105.683594 C354.383068,283.976559 352.774401,367.46485 365.338152,280.808594 C377.901903,194.152337 388.640768,-11.2265562 393.253435,113.496094 C397.866101,238.218744 411.744462,451.449225 418.891213,322.800781 C426.037964,194.152337 435.173927,-13.4804624 440.876336,98.2929687 C446.578745,210.0664 448.403632,398.394538 457.634731,287.789062 C466.86583,177.183587 469.717035,61.7109438 473.787713,141.875 C477.858392,222.039056 476.033505,467.085936 486.801199,263.988281 C497.568893,60.8906263 512.306364,-75.7265562 509.230292,49.3007812 C506.154219,174.328119 506.923958,314.390619 516.408754,228.132812 C525.89355,141.875006 527.525281,61.5546816 531.760286,101.714844 C535.99529,141.875006 540.065969,275.273432 547.437587,208.574219 C554.809205,141.875006 565.29149,82.4882753 565.29149,134.414062 C565.29149,186.33985 560.44819,349.363275 570.673896,266.199219 C580.899601,183.035162 579.902112,75.6796816 588.271219,137.867187 C596.640327,200.054693 593.371099,257.375 593.371099,257.375" id="Path-2" stroke="#979797" sketch:type="MSShapeGroup"></path>
    </g>
</svg>