<?xml version="1.0" encoding="UTF-8" standalone="no"?>
<svg width="744px" height="483px" viewBox="0 0 744 483" version="1.1" xmlns="http://www.w3.org/2000/svg" xmlns:xlink="http://www.w3.org/1999/xlink" xmlns:sketch="http://www.bohemiancoding.com/sketch/ns">
    <!-- Generator: Sketch 3.3.3 (12081) - http://www.bohemiancoding.com/sketch -->
    <title>Slice 1</title>
    <desc>Created with Sketch.</desc>
    <defs></defs>
    <g id="Page-1" stroke="none" stroke-width="1" fill="none" fill-rule="evenodd" sketch:type="MSPage">
        <path d="M31.2070312,1.01171875 C7.44921875,68.5820312 -15.53125,244.75 18.734375,146.957031 C53,49.1640625 49.7421873,110.300781 34.2382812,177 C18.7343752,243.699219 -6.71093766,391.917969 35.671875,273.753906 C78.0546877,155.589844 136.019531,-3 118.558594,108.039062 C101.097656,219.078125 85.2461012,399.855469 120.550781,273.40625 C155.855461,146.957031 199.449226,-7.859375 183.953125,128.882812 C168.457024,265.625 165.027351,344.449219 196.207031,243.265625 C227.386711,142.082031 234.062485,185.066406 234.062493,185.066406 C234.062493,185.066406 209.621101,360.117187 235.96875,265.542969 C262.316399,170.96875 283.031257,93.7539062 283.03125,170.789062 C283.031243,247.824219 281.82032,371.765625 302.875,271.277344 C323.92968,170.789062 337.519539,121.585937 337.519531,187.378906 C337.519524,253.171875 346.257805,296.679687 346.257805,296.679687 C346.257805,296.679687 345.863289,399.566406 355.550781,296.679687 C365.238274,193.792969 380.734368,250.511719 380.734368,250.511719 L385.859368,324.375 C385.859368,324.375 365.22657,474.574219 392.542969,372.925781 C419.859368,271.277344 423.335945,247.089844 423.335938,310.007812 C423.33593,372.925781 438.277351,477.28125 445.179687,390.433594 C452.082024,303.585937 469.105476,241.800781 473.96875,307.363281 C478.832024,372.925781 500.023445,385.664062 506.234375,304.753906 C512.445305,223.84375 538.761696,10.0976562 538.761719,200.265625 C538.761742,390.433594 550.960914,577.980469 573.5,419.265625 C596.039086,260.550781 608.894508,124.386719 619.578125,248.65625 C630.261742,372.925781 648.324257,357.578125 648.324219,278.921875 C648.324181,200.265625 660.828102,26.4765625 667.125,202.476562 C673.421898,378.476562 694.918007,602.464844 694.917969,405.75 C694.917931,209.035156 699.601539,36.0273438 714.496094,204.476562 C729.390648,372.925781 735.433571,500.484375 742.6875,371.875" id="Path-1" stroke="#979797" sketch:type="MSShapeGroup"></path>
    </g>
</svg>