<?xml version="1.0" encoding="UTF-8" standalone="no"?>
<svg width="640px" height="429px" viewBox="0 0 640 429" version="1.1" xmlns="http://www.w3.org/2000/svg" xmlns:xlink="http://www.w3.org/1999/xlink" xmlns:sketch="http://www.bohemiancoding.com/sketch/ns">
    <!-- Generator: Sketch 3.3.3 (12081) - http://www.bohemiancoding.com/sketch -->
    <title>Slice 1</title>
    <desc>Created with Sketch.</desc>
    <defs></defs>
    <g id="Page-1" stroke="none" stroke-width="1" fill="none" fill-rule="evenodd" sketch:type="MSPage">
        <path d="M0.6953125,238.21875 C-49.8484223,228.631485 21.1207775,-25.6445313 17.779477,148.195312 C14.4381765,322.035156 21.24186,345.843747 26.4628222,263.0625 C31.6837844,180.281253 51.7863627,45.2991837 48.1567706,122.128906 C44.5271784,198.958629 34.364897,346.187497 48.8861485,252.90625 C63.4074001,159.625003 73.6388715,-40.0429641 73.6388715,138.511719 C73.6388715,317.066402 63.8917301,510.519298 81.7427505,349.203125 C99.5937708,187.886952 109.91173,70.5820346 109.91173,136.457031 C109.91173,202.332028 101.675237,484.027343 117.57164,249.804688 C133.468042,15.5820317 126.318409,318.304691 133.816875,290.683594 C141.315342,263.062497 145.22746,251.84766 154.132789,194.152344 C163.038119,136.457028 175.025287,20.4570346 175.025287,107.304687 C175.025287,194.15234 167.743039,328.515628 182.327715,266.890625 C196.912391,205.265622 213.030778,48.4609408 213.030778,130.621094 C213.030778,212.781247 210.563002,330.113285 223.031616,255.078125 C235.500231,180.042965 245.181066,110.988285 245.181066,160.980469 C245.181066,210.972653 237.255927,336.449222 248.79336,269.425781 C260.330793,202.40234 271.804802,49.0625033 271.804802,145.644531 C271.804802,242.226559 265.231751,449.527347 277.538923,370.105469 C289.846094,290.68359 295.874273,130.683597 300.806944,200.054687 C305.739614,269.425778 297.474292,584.835938 315.420449,330.105469 C333.366605,75.3749995 354.383068,-72.6093717 354.383068,105.683594 C354.383068,283.976559 352.774401,367.46485 365.338152,280.808594 C377.901903,194.152337 388.640768,-11.2265562 393.253435,113.496094 C397.866101,238.218744 411.744462,451.449225 418.891213,322.800781 C426.037964,194.152337 435.173927,-13.4804624 440.876336,98.2929687 C446.578745,210.0664 448.403632,398.394538 457.634731,287.789062 C466.86583,177.183587 469.717035,61.7109438 473.787713,141.875 C477.858392,222.039056 476.033505,467.085936 486.801199,263.988281 C497.568893,60.8906263 512.306364,-75.7265562 509.230292,49.3007812 C506.154219,174.328119 506.923958,314.390619 516.408754,228.132812 C525.89355,141.875006 527.525281,61.5546816 531.760286,101.714844 C535.99529,141.875006 540.065969,275.273432 547.437587,208.574219 C554.809205,141.875006 565.29149,82.4882753 565.29149,134.414062 C565.29149,186.33985 560.44819,349.363275 570.673896,266.199219 C580.899601,183.035162 579.902112,75.6796816 588.271219,137.867187 C596.640327,200.054693 593.371099,257.375 593.371099,257.375 C593.371099,257.375 592.171875,372.402338 601.320313,283.277344 C610.46875,194.15235 611.429674,119.49386 618.859375,167.070312 C626.289076,214.646765 609.398424,337.765619 622.859375,268.910156 C636.320326,200.054693 645.660143,111.915735 645.660156,163.28125 C645.66017,214.646765 632.062487,395.039057 650.082031,311.585938 C668.101576,228.132818 678.175768,1.69922809 678.175781,171.96875 C678.175795,342.238272 677.179674,523.570307 689.199219,375.851563 C701.218763,228.132818 705.468737,109.656244 710.945313,168.894531 C716.421888,228.132818 718.722643,285.050783 724.367188,203.589844 C730.011732,122.128905 737.343737,29.1796816 737.34375,139.492187 C737.343763,249.804693 736.304674,393.0039 746.242188,290.4375 C756.179701,187.8711 774.58983,-55.9882719 774.589844,141.019531 C774.589857,338.027334 779.37108,493.910166 787.359375,381.410156 C795.34767,268.910147 815.980455,76.3359316 815.980469,163.070312 C815.980482,249.804693 812.941393,329.136713 822.625,268.855469 C832.308607,208.574225 843.773424,126.894525 843.773438,165.242187 C843.773451,203.58985 847.898424,248.292963 853.761719,221.222656 C859.625013,194.15235 867.531237,50.7734468 867.53125,181.179687 C867.531263,311.585928 865.269518,392.800775 876.257813,293.476563 C887.246107,194.15235 899.320299,109.460932 899.320313,173.839844 C899.320326,238.218756 898.05858,458.750002 914.648438,266.035156 C931.238295,73.3203108 942.261705,-60.4414045 942.261719,30.84375 C942.261732,122.128905 944.042955,161.816408 953.03125,119.910156 C962.019545,78.0039045 989.515612,-156.578131 978.050781,46.6132812 C966.585951,249.804693 948.30858,574.789059 969.972656,412.296875 C991.636732,249.804691 1004.6602,84.6171841 1009.17578,167.210937 C1013.69136,249.804691 1009.82817,463.167965 1025.15625,335.871094 C1040.48433,208.574222 1040.83208,25.7421841 1048.47266,151.0625 C1056.11323,276.382816 1043.17974,453.105465 1063.63281,323.628906 C1084.08589,194.152347 1097.24211,51.7109341 1097.24219,150.757812 C1097.24226,249.804691 1086.85942,365.816403 1101.75781,287.195312 C1116.6562,208.574222 1127.4218,134.249997 1127.42188,183.800781 C1127.42195,233.351566 1083.69145,543.273434 1113.52734,396.539062 C1143.36323,249.804691 1141.62505,-96.1953159 1141.625,98.640625 C1141.62495,293.476566 1143.55083,422.046872 1151.69922,330.132812 C1159.84761,238.218753 1174.04692,57.1679653 1174.04688,187.960937 C1174.04683,318.75391 1178.50786,379.46484 1189.5,300.34375 C1200.49214,221.22266 1222.98821,-6.92578468 1222.98828,129.554687 C1222.98836,266.03516 1221.0313,412.378903 1232.62109,339.207031 C1244.21089,266.03516 1258.06243,122.917965 1258.0625,194.476562 C1258.06257,266.03516 1264.31641,294.480469 1264.31641,294.480469 C1264.31641,294.480469 1272.64067,140.804684 1277.58984,235.46875 C1282.53901,330.132816 1265.51958,426.804684 1282.53906,338.304688 C1299.55855,249.804691 1294.95708,96.3984341 1302.60156,203.992187 C1310.24605,311.585941 1292.58208,457.289059 1310.24609,350.335938 C1327.91011,243.382816 1339.37505,41.4531216 1339.375,173.640625 C1339.37495,305.828128 1346.66789,473.832028 1346.66797,374.914062 C1346.66804,275.996097 1362.99614,116.410153 1362.99609,253.847656 C1362.99605,391.28516 1357.26567,524.87109 1367.77344,395.453125 C1378.2812,266.03516 1409.89067,-24.2812534 1402.25,140.988281 C1394.60933,306.257816 1383.49614,378.43359 1400.82031,311.429688 C1418.14448,244.425785 1429.56633,74.8710903 1429.56641,184.675781 C1429.56648,294.480472 1419.51958,442.882809 1435.84766,339.175781 C1452.17573,235.468753 1468.85161,47.1093716 1468.85156,173.726563 C1468.85151,300.343753 1456.99614,506.382809 1471.62891,408.90625 C1486.26167,311.429691 1483.13677,126.832028 1493.21094,216.066406 C1503.28511,305.300785 1502.93755,408.441403 1508.14844,351.460938 C1513.35933,294.480472 1524.4727,172.531247 1524.47266,251.332031 C1524.47261,330.132816 1540.45305,407.457028 1540.45313,336.746094 C1540.4532,266.03516 1548.05474,105.722653 1548.05469,270.867188 C1548.05464,436.011722 1557.65625,353.167969 1557.65625,353.167969 L1563.21094,280.59375 L1582.32031,246.941406 C1582.32031,246.941406 1572.89458,54.2304653 1592.12891,137.726562 C1611.36323,221.22266 1630.90239,411.351559 1630.90234,302.914062 C1630.9023,194.476566 1630.95317,47.8789028 1645.54297,147.410156 C1660.13276,246.94141 1627.13677,374.351559 1653.1875,304.910156 C1679.23823,235.468753 1678.19927,286.503903 1678.19922,324.367188 C1678.19917,362.230472 1699.69536,28.6054653 1699.69531,182.675781 C1699.69526,336.746097 1689.23052,433.906247 1707.98828,331.019531 C1726.74605,228.132816 1734.08599,151.765622 1734.08594,277.003906 C1734.08589,402.242191 1748.06255,546.960934 1754.70312,342.34375" id="Path-2" stroke="#979797" sketch:type="MSShapeGroup"></path>
    </g>
</svg>